<?xml version="1.0" encoding="utf-8"?>
<!-- Generator: Adobe Illustrator 16.0.0, SVG Export Plug-In . SVG Version: 6.00 Build 0)  -->
<!DOCTYPE svg PUBLIC "-//W3C//DTD SVG 1.1//EN" "http://www.w3.org/Graphics/SVG/1.1/DTD/svg11.dtd">
<svg version="1.1" id="Layer_1" xmlns="http://www.w3.org/2000/svg" xmlns:xlink="http://www.w3.org/1999/xlink" x="0px" y="0px"
	 width="191.5px" height="55px" viewBox="0 7 191.5 55" style="enable-background:new 0 7 191.5 55;" xml:space="preserve">
<style type="text/css">
<![CDATA[
	.st0{fill:#FFFFFF;}
]]>
</style>
<g>
	<path class="st0" d="M30.1,25.5c-6.7,0-10.6,4-10.6,10.4c0,6.4,3.9,10.4,10.6,10.4c6.7,0,10.6-4,10.6-10.4
		C40.7,29.5,36.9,25.5,30.1,25.5z M34.9,40.9c-1.2,1.2-2.8,1.9-4.8,1.9s-3.7-0.6-4.8-1.9c-1.2-1.2-1.8-3-1.8-5c0-2.1,0.6-3.8,1.8-5
		c1.2-1.2,2.8-1.9,4.8-1.9s3.7,0.6,4.8,1.9c1.2,1.2,1.8,3,1.8,5C36.7,38,36.1,39.7,34.9,40.9z"/>
	<path class="st0" d="M54.5,45.9V37c0-2.3-1.2-3.7-3.2-3.7S48,34.7,48,37v8.9h-3.8V30.6H48v2.2c1.1-1.3,2.6-2.5,5-2.5
		c3.3,0,5.2,2.2,5.2,5.7v9.9H54.5z"/>
	<path class="st0" d="M70.6,45.4c-0.7,0.4-1.8,0.8-3.2,0.8c-2.7,0-4.5-1.1-4.5-4.6v-8h-1.8v-3h1.8v-3.9h3.8v3.9h3.7v3h-3.7v7.3
		c0,1.3,0.7,2,2,2c0.7,0,1.5-0.2,1.9-0.4V45.4z"/>
	<path class="st0" d="M79.9,30.4c-2.5,0-4.1,0.4-5.7,1.1l0.8,2.6c1.1-0.4,2.6-0.8,4.3-0.8c2.5,0,4,1.2,4,3.4V37l0,0
		c-1.2-0.3-2.6-0.6-4.3-0.6c-3.5,0-6.1,1.6-6.1,5.1v0.1c0,3,2.3,4.6,5.1,4.6c2.3,0,3.9-0.8,5.2-1.7v1.4h3.5V37
		C86.7,32.9,84.6,30.4,79.9,30.4z M83.2,40.6c0,1.8-1.6,3.1-3.8,3.1c-1.7,0-2.8-0.9-2.8-2.3v-0.1c0-1.6,1.3-2.5,3.5-2.5
		c1,0,2.1,0.2,2.9,0.5l0.3,0.1L83.2,40.6L83.2,40.6z"/>
	<path class="st0" d="M90.6,45.9V30.6h3.7v3.1c1-2.1,2.3-3.5,5.1-3.4v3.4h-0.1c-1.4,0-2.5,0.4-3.4,1.2c-1.1,1-1.7,2.6-1.7,4.8V46
		L90.6,45.9L90.6,45.9z"/>
	<path class="st0" d="M106.6,25v3.3h-4V25H106.6L106.6,25L106.6,25z M106.4,30.7L106.4,30.7l-3.7-0.1v15.3h3.8L106.4,30.7
		L106.4,30.7z"/>
	<path class="st0" d="M118.2,30.3c-5.2,0-8.3,3.1-8.3,8c0,4.9,3.1,8,8.3,8s8.3-3.1,8.3-8C126.4,33.4,123.3,30.3,118.2,30.3z
		 M121.5,41.8c-0.8,0.8-1.9,1.3-3.3,1.3c-1.4,0-2.5-0.5-3.3-1.3c-0.8-0.9-1.2-2.1-1.2-3.5c0-1.5,0.4-2.7,1.2-3.5
		c0.8-0.8,1.9-1.3,3.3-1.3c1.4,0,2.5,0.5,3.3,1.3c0.8,0.9,1.2,2.1,1.2,3.5C122.7,39.8,122.3,41,121.5,41.8z"/>
</g>
<path class="st0" d="M153.4,14.3c-13,0-19.1,6.1-19.1,19.2c0,13.1,6.1,19.2,19.1,19.2s19.1-6.1,19.1-19.2
	C172.5,20.4,166.4,14.3,153.4,14.3"/>
<path d="M166.4,24.3c-4.3-2-9.1-1.7-13.1,1l0,0c-0.2-0.2-0.5-0.3-0.7-0.5l0,0c-2-1.2-4.3-1.8-6.6-1.8c-2,0-3.9,0.5-5.7,1.3l-0.1,0.1
	v0.1c0.4,4.7,3.1,8.8,7.3,10.9c0,0.3,0,0.6,0,0.9l0,0c0,2.3,0.6,4.6,1.8,6.6c1,1.7,2.4,3.2,4,4.3l0.1,0.1l0.1-0.1
	c3.9-2.7,6-7.1,5.7-11.8c0.3-0.1,0.5-0.3,0.8-0.4l0,0c2-1.1,3.7-2.8,4.8-4.8c1-1.7,1.6-3.6,1.7-5.6v-0.1L166.4,24.3z M161.9,28.8
	c-0.9,1.5-2.2,2.8-3.6,3.6c-0.5,0.3-1,0.5-1.6,0.7c-1.1,0.4-2.4,0.4-3.3-0.7l0,0c-0.3,1.1-0.2,2.2,0.2,2.9c0.1,0.2,0.2,0.3,0.3,0.4
	c0.3,0.3,0.7,0.5,1.1,0.6c0.4,0.1,0.7,0.1,1,0.1c-0.1,2.5-1,4.8-2.6,6.6c-0.6-0.6-1.1-1.3-1.5-2c-0.9-1.6-1.3-3.3-1.3-5
	c0-0.6,0.1-1.2,0.2-1.7c0.2-1.1,0.9-2.3,2.2-2.6l0,0c-0.9-0.8-1.8-1.3-2.6-1.3c-0.2,0-0.4,0-0.6,0.1c-0.4,0.1-0.8,0.4-1.1,0.7
	c-0.2,0.3-0.4,0.5-0.6,0.8c-2.1-1.3-3.6-3.2-4.4-5.6c0.8-0.2,1.6-0.3,2.5-0.3c1.8,0,3.5,0.5,4.9,1.4c0.5,0.3,1,0.6,1.4,1
	c0.9,0.7,1.5,1.9,1.1,3.2l0,0c1.1-0.3,2-0.9,2.4-1.6c0.1-0.2,0.2-0.3,0.2-0.5c0.1-0.4,0.1-0.9,0-1.3c-0.1-0.4-0.3-0.6-0.4-0.9
	c2.2-1.2,4.6-1.6,7-1C162.7,27.3,162.4,28.1,161.9,28.8z"/>
</svg>
